<svg width="21" height="20" viewBox="0 0 21 20" fill="none" xmlns="http://www.w3.org/2000/svg">
<path d="M12.867 2.517L13.2302 3.5854C13.7126 5.00454 15.0451 5.95898 16.5439 5.95898H17.4209C19.87 5.95898 20.8585 9.11539 18.847 10.5124L18.3739 10.8409C17.0915 11.7316 16.554 13.3639 17.0565 14.8421L17.2916 15.5337C18.0678 17.8173 15.4796 19.7675 13.4986 18.3917L12.4965 17.6957C11.296 16.862 9.70397 16.862 8.50354 17.6957L7.50142 18.3917C5.5204 19.7675 2.93216 17.8173 3.70839 15.5337L3.94347 14.8421C4.44596 13.3639 3.90855 11.7316 2.62615 10.8409L2.15302 10.5124C0.141487 9.11539 1.13002 5.95898 3.57906 5.95898H4.45606C5.95495 5.95898 7.28745 5.00454 7.76984 3.5854L8.13301 2.517C8.90141 0.256442 12.0986 0.256442 12.867 2.517Z" stroke="#0C1338"/>
</svg>
